# xmcd
#
# Track frame offsets: 
#        150
#        20915
#        39705
#        53985
#        73405
#        93805
#        112287
#        131150
#        154525
#        169662
#
# Disc length: 2467 seconds
#
# Revision: 0
# Processed by: cddbd v1.5.2PL0 Copyright (c) Steve Scherf et al.
# Submitted via: ExactAudioCopy v0.95b3
#
DISCID=9109a10a
DTITLE=Dave Hannon and Band - Blues Canon
DYEAR=2003
DGENRE=Blues
TTITLE0=LP HiFi
TTITLE1=Break Your Heart
TTITLE2=How Long
TTITLE3=Telephone
TTITLE4=Tears Of Blue
TTITLE5=Bad Girl
TTITLE6=Sugar Daddy
TTITLE7=Don't Lie
TTITLE8=Little Blue Lies
TTITLE9=Trying To Be True
EXTD=
EXTT0=
EXTT1=
EXTT2=
EXTT3=
EXTT4=
EXTT5=
EXTT6=
EXTT7=
EXTT8=
EXTT9=
PLAYORDER=
